<?xml version="1.0" encoding="utf-8"?>
<!-- Svg Vector Icons : http://www.onlinewebfonts.com/icon -->
<!DOCTYPE svg PUBLIC "-//W3C//DTD SVG 1.1//EN" "http://www.w3.org/Graphics/SVG/1.1/DTD/svg11.dtd">
<svg version="1.1" xmlns="http://www.w3.org/2000/svg" xmlns:xlink="http://www.w3.org/1999/xlink" x="0px" y="0px" viewBox="0 0 1000 1000" enable-background="new 0 0 1000 1000" xml:space="preserve">
<metadata> Svg Vector Icons : http://www.onlinewebfonts.com/icon </metadata>
<g><path d="M500,255c-135.1,0-245,109.9-245,245c0,135.1,109.9,245,245,245s245-109.9,245-245C745,364.9,635.1,255,500,255L500,255z M500,683.7c-101.3,0-183.7-82.5-183.7-183.8c0-101.3,82.4-183.7,183.7-183.7c101.3,0,183.7,82.4,183.7,183.7C683.7,601.3,601.3,683.7,500,683.7L500,683.7z M990,591V409l-107.3-17.9c-8.3-29.4-20.1-57.8-35.1-84.6l63.3-88.6L782.1,89.2l-88.6,63.3c-26.9-15-55.2-26.8-84.6-35.1L591,10H409l-17.9,107.3c-29.5,8.4-57.8,20.1-84.7,35.1l-88.6-63.3L89.1,217.9l63.3,88.6c-15,26.9-26.8,55.2-35.1,84.6L10,409V591l107.3,17.9c8.4,29.4,20.1,57.8,35.1,84.6l-63.3,88.6l128.8,128.7l88.6-63.3c26.8,15,55.1,26.7,84.6,35.1L408.9,990h182.1l17.8-107.3c29.4-8.4,57.8-20.1,84.6-35.1l88.6,63.3l128.7-128.8l-63.3-88.6c15-26.8,26.8-55.2,35.1-84.6L990,591L990,591z M832.7,555.1l-4.5,20.1c-8.4,36.6-22.8,71.5-43,103.6l-10.9,17.4l56.7,79.3l-55.4,55.4l-79.3-56.7l-17.4,11c-32.1,20.2-66.9,34.7-103.6,43l-20,4.6l-16,96.1h-78.3l-16-96.1l-20-4.6c-36.6-8.4-71.5-22.8-103.6-43l-17.4-11l-79.3,56.7l-55.4-55.4l56.7-79.3l-10.9-17.4c-20.2-32.1-34.7-66.9-43-103.6l-4.5-20.1l-96.1-16v-78.3l96.1-16l4.6-20c8.3-36.6,22.8-71.5,43-103.6l10.9-17.4l-56.7-79.3l55.4-55.3l79.3,56.7l17.4-10.9c32.1-20.2,66.9-34.7,103.6-43l20-4.6l16-96h78.2l16,96l20,4.6c36.7,8.4,71.5,22.8,103.6,43l17.4,10.9l79.3-56.7l55.4,55.4l-56.7,79.3l10.9,17.4c20.2,32.1,34.7,67,43,103.6l4.6,20l96.1,16v78.3L832.7,555.1L832.7,555.1z"/></g>
</svg>